<?xml version="1.0" encoding="UTF-8" standalone="no"?>
<!-- Created with Inkscape (http://www.inkscape.org/) -->

<svg
   width="27.449369mm"
   height="27.449369mm"
   viewBox="0 0 27.449369 27.449369"
   version="1.1"
   id="svg5"
   xmlns="http://www.w3.org/2000/svg"
   xmlns:svg="http://www.w3.org/2000/svg">
  <defs
     id="defs2" />
  <g
     id="layer1"
     transform="translate(-32.784847,-42.839214)">
    <path
       id="rect21210"
       style="fill:#818f3d;stroke-width:0.264583"
       d="m 35.784847,42.839214 h 21.44937 c 1.662,0 3,1.338 3,3 v 21.44937 c 0,1.662 -1.338,3 -3,3 h -21.44937 c -1.662,0 -3,-1.338 -3,-3 v -21.44937 c 0,-1.662 1.338,-3 3,-3 z" />
    <g
       aria-label="{*}"
       id="text19748"
       style="font-size:10.5833px;line-height:1.25;letter-spacing:0px;fill:#ffffff;stroke-width:0.264583">
      <path
         d="m 40.178074,53.589991 c 0,-0.222249 0.148166,-0.328082 0.370416,-0.328082 h 1.291162 c 0.09525,0 0.15875,-0.0635 0.15875,-0.15875 v -1.010705 c 0,-0.09525 -0.0635,-0.158749 -0.15875,-0.158749 h -2.243659 c -0.455082,0 -1.127122,0.201082 -1.127122,1.137704 v 2.291285 c 0,0.07408 0.0053,0.148166 -0.07937,0.206374 l -1.391704,0.830789 c -0.07937,0.05292 -0.07937,0.275166 0,0.322791 l 1.391704,0.83608 c 0.08467,0.05292 0.07937,0.127 0.07937,0.201083 v 2.296576 c 0,0.936622 0.656165,1.137705 1.127122,1.137705 h 2.243659 c 0.09525,0 0.15875,-0.0635 0.15875,-0.15875 v -1.015996 c 0,-0.09525 -0.0635,-0.15875 -0.15875,-0.15875 H 40.54849 c -0.22225,0 -0.370416,-0.105833 -0.370416,-0.328082 v -2.143118 c 0,-0.07408 -0.03175,-0.127 -0.111124,-0.169333 l -1.254121,-0.656165 1.254121,-0.661456 c 0.07937,-0.03704 0.111124,-0.09525 0.111124,-0.169333 z"
         style="font-weight:900;font-family:'Cartograph CF';-inkscape-font-specification:'Cartograph CF Heavy'"
         id="path663" />
      <path
         d="m 48.845794,55.108695 c -0.02646,-0.127 -0.137582,-0.195791 -0.269874,-0.15875 l -1.301746,0.370416 0.01058,-1.428746 c 0,-0.126999 -0.08996,-0.216957 -0.216958,-0.216957 h -1.15358 c -0.132291,0 -0.222249,0.08996 -0.222249,0.216957 l 0.04762,1.428746 -1.301746,-0.370416 c -0.132291,-0.03704 -0.243416,0.03175 -0.269874,0.15875 l -0.306916,1.158871 c -0.03704,0.148166 0.04233,0.227541 0.174625,0.264582 l 1.222371,0.28575 -0.851956,1.068913 c -0.08996,0.111124 -0.07408,0.232832 0.03704,0.312207 l 1.02658,0.677331 c 0.121708,0.07937 0.227541,0.03704 0.296332,-0.05821 l 0.740831,-1.127121 0.740831,1.127121 c 0.06879,0.09525 0.174625,0.137583 0.296333,0.05821 l 1.02658,-0.677331 c 0.142874,-0.09525 0.126999,-0.201083 0.03704,-0.312207 l -0.851955,-1.068913 1.222371,-0.28575 c 0.132291,-0.03704 0.211666,-0.116416 0.174624,-0.264582 z"
         style="font-weight:900;font-family:'Cartograph CF';-inkscape-font-specification:'Cartograph CF Heavy'"
         id="path665" />
      <path
         d="m 52.835696,55.733109 c 0,0.07408 0.03175,0.132292 0.111125,0.169333 l 1.254121,0.661456 -1.254121,0.656165 c -0.07937,0.04233 -0.111125,0.09525 -0.111125,0.169333 v 2.143118 c 0,0.222249 -0.148166,0.328082 -0.370415,0.328082 H 51.17941 c -0.100542,0 -0.15875,0.0635 -0.15875,0.15875 v 1.015996 c 0,0.09525 0.05821,0.15875 0.15875,0.15875 h 2.238368 c 0.470956,0 1.127121,-0.201083 1.127121,-1.137705 v -2.296576 c 0,-0.07408 -0.0053,-0.148166 0.07937,-0.201083 l 1.396995,-0.83608 c 0.07938,-0.04762 0.07938,-0.269874 0,-0.322791 l -1.396995,-0.830789 c -0.08467,-0.05821 -0.07937,-0.132291 -0.07937,-0.206374 v -2.291285 c 0,-0.936622 -0.672039,-1.137704 -1.127121,-1.137704 H 51.17941 c -0.100542,0 -0.15875,0.0635 -0.15875,0.158749 v 1.010705 c 0,0.09525 0.05821,0.15875 0.15875,0.15875 h 1.285871 c 0.222249,0 0.370415,0.105833 0.370415,0.328082 z"
         style="font-weight:900;font-family:'Cartograph CF';-inkscape-font-specification:'Cartograph CF Heavy'"
         id="path667" />
    </g>
  </g>
</svg>
